# xmcd
#
# Track frame offsets: 
#        150
#        18095
#        37982
#        51217
#        65160
#        83979
#        97905
#        114465
#        129035
#        150070
#        162530
#        176595
#        194675
#
# Disc length: 2825 seconds
#
# Revision: 2
# Processed by: cddbd v1.5.2PL0 Copyright (c) Steve Scherf et al.
# Submitted via: ExactAudioCopy v0.99pb5
#
DISCID=9c0b070d
DTITLE=Janiva Magness and Jeff Turmes - It Takes One To Know One
DYEAR=1997
DGENRE=Blues
TTITLE0=Good Car
TTITLE1=It Ain't No Such Thing As A King Bee
TTITLE2=Dummy On Your Knee
TTITLE3=Liquor Town
TTITLE4=It Takes One To Know One
TTITLE5=Once In A While
TTITLE6=A Ton Of Love
TTITLE7=Some People Say
TTITLE8=You Made Me
TTITLE9=Rollin' 'Round In The Gutter
TTITLE10=She Holds A Grudge
TTITLE11=Boiling Water
TTITLE12=And I'm Sleeping Now
EXTD=
EXTT0=
EXTT1=
EXTT2=
EXTT3=
EXTT4=
EXTT5=
EXTT6=
EXTT7=
EXTT8=
EXTT9=
EXTT10=
EXTT11=
EXTT12=
PLAYORDER=
